<?xml version="1.0" standalone="no"?>
<!DOCTYPE svg PUBLIC "-//W3C//DTD SVG 20010904//EN"
 "http://www.w3.org/TR/2001/REC-SVG-20010904/DTD/svg10.dtd">
<svg version="1.0" xmlns="http://www.w3.org/2000/svg"
 width="700.000000pt" height="700.000000pt" viewBox="0 0 700.000000 700.000000"
 preserveAspectRatio="xMidYMid meet">
<metadata>
Created by potrace 1.11, written by Peter Selinger 2001-2013
</metadata>
<g transform="translate(0.000000,700.000000) scale(0.100000,-0.100000)"
fill="#000000" stroke="none">
<path d="M0 3500 l0 -3500 3500 0 3500 0 0 3500 0 3500 -3500 0 -3500 0 0
-3500z m2419 812 c-142 -1 -376 -1 -522 0 l-263 3 260 529 261 528 260 -528
261 -529 -257 -3z m1341 793 l-265 -265 265 -265 265 -265 -533 0 -532 0 0
530 0 530 532 0 533 0 -265 -265z m1303 -265 c142 -286 257 -522 257 -525 0
-3 -234 -5 -521 -5 -295 0 -519 4 -517 9 15 39 514 1041 519 1041 3 0 121
-234 262 -520z m-2764 -834 c271 -88 431 -367 363 -631 -49 -193 -185 -335
-372 -393 -46 -14 -103 -16 -355 -17 l-300 0 -3 520 c-1 286 0 526 3 533 4 11
61 13 308 10 253 -4 311 -7 356 -22z m1676 -111 l0 -130 -522 -3 -523 -2 0
135 0 135 523 -2 522 -3 0 -130z m1100 -135 l265 265 0 -533 0 -532 -530 0
-530 0 0 532 0 533 265 -265 265 -265 265 265z m-1100 -255 l0 -130 -522 -3
-523 -2 0 135 0 135 523 -2 522 -3 0 -130z m0 -390 l0 -130 -522 -3 -523 -2 0
135 0 135 523 -2 522 -3 0 -130z m-2075 -915 l0 -530 -135 0 -135 0 0 530 0
530 135 0 135 0 0 -530z m3440 0 l0 -530 -530 0 -530 0 0 530 0 530 530 0 530
0 0 -530z m-2680 -15 l0 -535 -247 2 -248 3 -3 133 -3 132 121 0 120 0 0 400
0 400 130 0 130 0 0 -535z m1073 -28 l257 -522 -516 -3 c-285 -1 -519 -1 -521
1 -5 5 509 1047 516 1047 3 0 122 -235 264 -523z"/>
<path d="M1951 4794 c-111 -224 -200 -409 -198 -411 2 -2 185 -2 406 -1 l402
3 -201 404 c-110 223 -202 406 -204 408 -2 2 -94 -179 -205 -403z"/>
<path d="M3040 4840 l0 -460 400 0 c220 0 400 3 400 8 0 4 -100 107 -223 230
l-223 223 223 221 c123 122 223 226 223 230 0 4 -180 8 -400 8 l-400 0 0 -460z"/>
<path d="M4601 4799 c-111 -223 -201 -409 -201 -412 0 -4 180 -7 400 -7 220 0
400 4 400 8 0 5 -90 191 -199 413 l-199 404 -201 -406z"/>
<path d="M1708 3718 c-2 -128 -2 -333 0 -455 l3 -223 247 0 c190 0 261 4 307
15 201 53 336 230 336 440 -1 207 -124 375 -320 435 -56 18 -93 20 -317 20
l-253 0 -3 -232z"/>
<path d="M3000 3890 l0 -60 450 0 450 0 0 60 0 60 -450 0 -450 0 0 -60z"/>
<path d="M4350 3442 l0 -402 460 0 460 0 0 402 0 403 -97 -95 c-54 -52 -158
-153 -231 -225 l-132 -130 -173 170 c-94 94 -198 195 -229 225 l-58 54 0 -402z"/>
<path d="M3000 3500 l0 -60 450 0 450 0 0 60 0 60 -450 0 -450 0 0 -60z"/>
<path d="M3000 3115 l0 -55 450 0 450 0 0 55 0 55 -450 0 -450 0 0 -55z"/>
<path d="M1700 2205 l0 -455 60 0 60 0 0 455 0 455 -60 0 -60 0 0 -455z"/>
<path d="M4540 2205 l0 -95 30 0 30 0 0 70 0 70 40 0 40 0 0 -70 0 -70 30 0
30 0 0 95 0 95 -100 0 -100 0 0 -95z"/>
<path d="M4760 2205 l0 -95 29 0 c26 0 30 4 33 33 3 31 5 32 51 35 38 3 47 7
47 22 0 15 -9 19 -47 22 -73 5 -68 28 6 28 58 0 61 1 61 25 0 25 -1 25 -90 25
l-90 0 0 -95z"/>
<path d="M4960 2276 c0 -23 5 -25 48 -28 41 -3 47 -6 50 -27 4 -24 3 -24 -22
-8 -24 16 -26 16 -36 -2 -8 -16 -6 -23 11 -35 21 -14 19 -15 -32 -18 -48 -3
-54 -6 -57 -26 -4 -24 -3 -24 98 -20 104 3 137 15 112 40 -7 7 -12 36 -12 64
0 67 -20 84 -102 84 -55 0 -58 -1 -58 -24z"/>
<path d="M4480 2136 c0 -21 5 -26 26 -26 21 0 25 4 22 23 -2 14 -11 23 -25 25
-19 3 -23 -1 -23 -22z"/>
<path d="M2470 2245 l0 -395 -115 0 -115 0 0 -60 0 -60 175 0 175 0 0 455 0
455 -60 0 -60 0 0 -395z"/>
<path d="M3267 2117 c-109 -221 -198 -405 -197 -409 0 -9 800 -11 800 -3 0 8
-398 815 -402 814 -2 0 -92 -181 -201 -402z"/>
</g>
</svg>
