<?xml version="1.0" encoding="UTF-8"?>
<svg width="112px" height="112px" viewBox="0 0 112 112" version="1.1" xmlns="http://www.w3.org/2000/svg" xmlns:xlink="http://www.w3.org/1999/xlink">
    <!-- Generator: sketchtool 49.2 (51160) - http://www.bohemiancoding.com/sketch -->
    <title>F8032142-865E-4B9A-AB4B-170A9FD191D4</title>
    <desc>Created with sketchtool.</desc>
    <defs></defs>
    <g id="Desktop" stroke="none" stroke-width="1" fill="none" fill-rule="evenodd">
        <g id="nfq-akademija_apie" transform="translate(-120.000000, 0.000000)">
            <g id="Logo" transform="translate(120.000000, 0.000000)">
                <rect id="Rectangle-5" fill="#FF6B00" x="0" y="0" width="112" height="112"></rect>
                <g id="Akademija_logo_inverted" transform="translate(26.000000, 26.000000)" fill="#FFFFFE">
                    <path d="M55.9155359,52.2589946 L55.5752168,52.0546588 L55.5768499,52.0563641 C55.378149,52.1882213 55.0757036,52.2541886 54.669125,52.2541886 L52.7701507,52.2541886 L52.7701507,51.4841306 L54.6243298,51.4841306 L54.6462608,51.4761463 L53.7781982,50.9397258 L54.1688341,50.3255554 L54.9991785,50.8463174 L54.9991785,50.5679523 C54.9991785,50.3367954 54.9567942,50.1766445 54.8734253,50.087887 C54.7909119,49.9990521 54.6417501,49.9546346 54.4257844,49.9546346 L53.3179586,49.9546346 L53.3179586,49.1844216 L54.6489827,49.1844216 C55.1338752,49.1844216 55.4714723,49.2693032 55.6623186,49.4388337 C55.8542536,49.6085194 55.9499877,49.8846364 55.9499877,50.2667197 L55.9499877,51.1735959 L55.9499877,51.4381628 L55.9501433,51.4359923 L56.3065606,51.6563743 L55.9155359,52.2589946 Z M52.7178118,51.1717355 L51.2548908,51.1717355 C51.1921309,51.1717355 51.1411141,51.2225869 51.1411141,51.2847558 L51.1411141,52.2545762 L50.1591193,52.2545762 L50.1591193,49.3005427 C50.1591193,49.2384512 50.2102916,49.1874448 50.2726627,49.1874448 L53.0790509,49.1874448 L53.0790509,49.9546346 L51.2548908,49.9546346 C51.1921309,49.9546346 51.1411141,50.0057186 51.1411141,50.0680426 L51.1411141,50.3174936 C51.1411141,50.3797401 51.1921309,50.4307465 51.2548908,50.4307465 L52.7178118,50.4307465 L52.7178118,51.1717355 Z M49.8818713,52.2545762 L48.8998765,52.2545762 L48.8998765,50.0680426 C48.8998765,50.0057186 48.848782,49.9546346 48.7864886,49.9546346 L47.7698864,49.9546346 C47.707282,49.9546346 47.6561097,50.0057186 47.6561097,50.0680426 L47.6561097,52.2545762 L46.6741927,52.2545762 L46.6741927,49.3005427 C46.6741927,49.2384512 46.7252873,49.1874448 46.7877361,49.1874448 L46.8300427,49.1874448 L47.0576739,49.1874448 L49.498779,49.1874448 L49.7260213,49.1874448 L49.7684056,49.1874448 C49.830699,49.1874448 49.8818713,49.2384512 49.8818713,49.3005427 L49.8818713,52.2545762 Z M45.6330932,52.2570567 L46.4085323,52.2570567 L46.4085323,51.4846732 L45.6330932,51.4846732 L45.6330932,52.2570567 Z M42.4354469,59.2484295 L59.486631,59.2484295 L59.486631,42.2524272 L42.4354469,42.2524272 L42.4354469,59.2484295 Z" id="Fill-1"></path>
                    <path d="M8.47517189,0.0456881782 L4.28342246,8.54372791 L0.0916730328,17.0416905 L8.47517189,17.0416905 L16.8586707,17.0416905 L12.6669213,8.54372791 L8.47517189,0.0456881782 Z M8.47517189,2.69562948 L11.6173897,9.06593743 L14.971281,15.8653107 L8.47517189,15.8653107 L1.97906282,15.8653107 L5.33295409,9.06593743 L8.47517189,2.69562948 Z" id="Fill-3"></path>
                    <path d="M38.4568373,0.0456881782 L21.4056532,0.0456881782 L21.4056532,17.0416905 L38.4568373,17.0416905 L29.9312064,8.54372803 L38.4568373,0.0456881782 Z M35.5981305,1.22594783 L29.0939377,7.70909151 L28.256669,8.54372803 L29.0939377,9.37828713 L35.5981305,15.8614308 L22.5897448,15.8614308 L22.5897448,1.22594783 L35.5981305,1.22594783 Z" id="Fill-5"></path>
                    <path d="M50.8189458,0.0456881782 L46.6271963,8.54372791 L42.4354469,17.0416905 L50.8189458,17.0416905 L59.2024446,17.0416905 L55.0106952,8.54372791 L50.8189458,0.0456881782 Z M50.8189458,2.69562948 L53.9611636,9.06593743 L57.3150548,15.8653107 L50.8189458,15.8653107 L44.3228367,15.8653107 L47.676728,9.06593743 L50.8189458,2.69562948 Z" id="Fill-7"></path>
                    <path d="M20.8372804,25.8229583 L37.6042781,25.8229583 L37.6042781,21.5739577 L20.8372804,21.5739577 L20.8372804,25.8229583 Z M22.0041801,24.6535185 L36.4374549,24.6535185 L36.4374549,22.7433976 L22.0041801,22.7433976 L22.0041801,24.6535185 Z" id="Fill-9"></path>
                    <path d="M20.8372804,32.0548258 L37.6042781,32.0548258 L37.6042781,27.8058252 L20.8372804,27.8058252 L20.8372804,32.0548258 Z M22.0041801,30.885386 L36.4374549,30.885386 L36.4374549,28.9752651 L22.0041801,28.9752651 L22.0041801,30.885386 Z" id="Fill-11"></path>
                    <path d="M20.8372804,38.2866933 L37.6042781,38.2866933 L37.6042781,34.0376927 L20.8372804,34.0376927 L20.8372804,38.2866933 Z M22.0041801,37.1172535 L36.4374549,37.1172535 L36.4374549,35.2071326 L22.0041801,35.2071326 L22.0041801,37.1172535 Z" id="Fill-12"></path>
                    <path d="M8.51156814,21.5739577 L0.150764313,21.5739577 L0.150764313,29.0768471 C0.113181647,29.4034948 0.0916730328,29.7351082 0.0916730328,30.0719201 C0.0916730328,30.4088095 0.113181647,30.7404229 0.150764313,31.0670707 L0.150764313,38.56996 L8.51156814,38.56996 L8.51156814,38.569029 C13.1248213,38.5490111 16.8586707,34.7528367 16.8586707,30.0719201 C16.8586707,25.3910035 13.1248213,21.5949066 8.51156814,21.5748888 L8.51156814,21.5739577 Z M8.29173633,22.7567174 L8.50659283,22.7576485 C12.4685407,22.7748731 15.691771,26.0560149 15.691771,30.0719201 C15.691771,34.0879029 12.4685407,37.3690446 8.50659283,37.3861917 L8.32633381,37.3871227 L1.31758747,37.3871227 L1.31758747,31.0670707 L1.31758747,30.9982497 L1.30978007,30.9299717 C1.27525913,30.6304024 1.25849619,30.3497646 1.25849619,30.0719201 C1.25849619,29.7941531 1.27525913,29.5135154 1.30978007,29.213946 L1.31758747,29.1455905 L1.31758747,29.0768471 L1.31758747,22.7567174 L8.29173633,22.7567174 Z" id="Fill-13"></path>
                    <path d="M59.486631,21.5739577 L50.9610001,30.0719976 L42.4354469,21.5739577 L42.4354469,38.56996 L59.486631,38.56996 L59.486631,21.5739577 Z M58.3025393,24.423413 L58.3025393,37.3897004 L43.6195386,37.3897004 L43.6195386,24.423413 L50.1237314,30.9065567 L50.9610001,31.7411158 L51.7983465,30.9065567 L58.3025393,24.423413 Z" id="Fill-14"></path>
                    <path d="M0.0916730328,59.2484295 L4.35446906,59.2484295 L4.35446906,42.2524272 L0.0916730328,42.2524272 L0.0916730328,59.2484295 Z M1.26490976,58.0655922 L3.18123233,58.0655922 L3.18123233,43.4351869 L1.26490976,43.4351869 L1.26490976,58.0655922 Z" id="Fill-15"></path>
                    <path d="M16.5744843,42.5356939 L12.3642177,42.5356939 L12.3642177,55.2387688 L8.61726509,55.2387688 L8.61726509,59.5316962 L16.5744843,59.5316962 L16.5744843,59.5137147 L16.5744843,55.2387688 L16.5744843,42.5356939 Z M15.4157051,43.7172022 L15.4157051,55.2387688 L15.4157051,58.3501878 L9.77604431,58.3501878 L9.77604431,56.4203547 L12.3642177,56.4203547 L13.5229969,56.4203547 L13.5229969,55.2387688 L13.5229969,43.7172022 L15.4157051,43.7172022 Z" id="Fill-16"></path>
                    <path d="M29.5049656,42.9583095 L25.3132162,51.4563493 L21.1214668,59.9543118 L29.5049656,59.9543118 L37.8884645,59.9543118 L33.696715,51.4563493 L29.5049656,42.9583095 Z M29.5049656,45.6082508 L32.6471834,51.9785588 L36.0010747,58.777932 L29.5049656,58.777932 L23.0088566,58.777932 L26.3627478,51.9785588 L29.5049656,45.6082508 Z" id="Fill-17"></path>
                </g>
            </g>
        </g>
    </g>
</svg>